<?xml version="1.0" encoding="UTF-8" standalone="no"?>
<!DOCTYPE svg PUBLIC "-//W3C//DTD SVG 1.1//EN"
 "http://www.w3.org/Graphics/SVG/1.1/DTD/svg11.dtd">
<!-- Generated by graphviz version 5.0.0 (20220707.1540)
 -->
<!-- Title: dependencies Pages: 1 -->
<svg width="474pt" height="247pt"
 viewBox="0.00 0.00 474.00 246.80" xmlns="http://www.w3.org/2000/svg" xmlns:xlink="http://www.w3.org/1999/xlink">
<g id="graph0" class="graph" transform="scale(1 1) rotate(0) translate(4 242.8)">
<title>dependencies</title>
<polygon fill="white" stroke="transparent" points="-4,4 -4,-242.8 470,-242.8 470,4 -4,4"/>
<text text-anchor="middle" x="233" y="-8.2" font-family="sans-serif" font-size="14.00">dependencies</text>
<g id="clust1" class="cluster">
<title>cluster_AwsModule</title>
<polygon fill="none" stroke="black" stroke-dasharray="1,5" points="8,-32.8 8,-230.8 458,-230.8 458,-32.8 8,-32.8"/>
</g>
<g id="clust6" class="cluster">
<title>cluster_AwsModule_providers</title>
<polygon fill="none" stroke="black" points="150,-40.8 150,-92.8 450,-92.8 450,-40.8 150,-40.8"/>
</g>
<g id="clust3" class="cluster">
<title>cluster_AwsModule_imports</title>
<polygon fill="none" stroke="black" points="16,-40.8 16,-92.8 142,-92.8 142,-40.8 16,-40.8"/>
</g>
<g id="clust4" class="cluster">
<title>cluster_AwsModule_exports</title>
<polygon fill="none" stroke="black" points="181,-170.8 181,-222.8 285,-222.8 285,-170.8 181,-170.8"/>
</g>
<!-- DatabaseModule -->
<g id="node1" class="node">
<title>DatabaseModule</title>
<polygon fill="#8dd3c7" stroke="black" points="134.36,-84.8 131.36,-88.8 110.36,-88.8 107.36,-84.8 23.64,-84.8 23.64,-48.8 134.36,-48.8 134.36,-84.8"/>
<text text-anchor="middle" x="79" y="-62.6" font-family="Times,serif" font-size="14.00">DatabaseModule</text>
</g>
<!-- AwsModule -->
<g id="node2" class="node">
<title>AwsModule</title>
<polygon fill="#8dd3c7" stroke="black" points="275.72,-149.8 272.72,-153.8 251.72,-153.8 248.72,-149.8 190.28,-149.8 190.28,-113.8 275.72,-113.8 275.72,-149.8"/>
<text text-anchor="middle" x="233" y="-127.6" font-family="Times,serif" font-size="14.00">AwsModule</text>
</g>
<!-- DatabaseModule&#45;&gt;AwsModule -->
<g id="edge1" class="edge">
<title>DatabaseModule&#45;&gt;AwsModule</title>
<path fill="none" stroke="black" d="M79,-84.91C79,-104.14 79,-131.8 79,-131.8 79,-131.8 180.1,-131.8 180.1,-131.8"/>
<polygon fill="black" stroke="black" points="180.1,-135.3 190.1,-131.8 180.1,-128.3 180.1,-135.3"/>
</g>
<!-- AwsService  -->
<g id="node3" class="node">
<title>AwsService </title>
<polygon fill="#fb8072" stroke="black" points="276.65,-214.8 189.35,-214.8 189.35,-178.8 276.65,-178.8 276.65,-214.8"/>
<text text-anchor="middle" x="233" y="-192.6" font-family="Times,serif" font-size="14.00">AwsService </text>
</g>
<!-- AwsModule&#45;&gt;AwsService  -->
<g id="edge2" class="edge">
<title>AwsModule&#45;&gt;AwsService </title>
<path fill="none" stroke="black" stroke-dasharray="5,2" d="M233,-149.91C233,-149.91 233,-168.79 233,-168.79"/>
<polygon fill="black" stroke="black" points="229.5,-168.79 233,-178.79 236.5,-168.79 229.5,-168.79"/>
</g>
<!-- AwsService -->
<g id="node4" class="node">
<title>AwsService</title>
<ellipse fill="#fdb462" stroke="black" cx="384" cy="-66.8" rx="57.9" ry="18"/>
<text text-anchor="middle" x="384" y="-62.6" font-family="Times,serif" font-size="14.00">AwsService</text>
</g>
<!-- AwsService&#45;&gt;AwsModule -->
<g id="edge3" class="edge">
<title>AwsService&#45;&gt;AwsModule</title>
<path fill="none" stroke="black" d="M384,-84.91C384,-104.14 384,-131.8 384,-131.8 384,-131.8 285.87,-131.8 285.87,-131.8"/>
<polygon fill="black" stroke="black" points="285.87,-128.3 275.87,-131.8 285.87,-135.3 285.87,-128.3"/>
</g>
<!-- DatabaseService -->
<g id="node5" class="node">
<title>DatabaseService</title>
<ellipse fill="#fdb462" stroke="black" cx="233" cy="-66.8" rx="75.26" ry="18"/>
<text text-anchor="middle" x="233" y="-62.6" font-family="Times,serif" font-size="14.00">DatabaseService</text>
</g>
<!-- DatabaseService&#45;&gt;AwsModule -->
<g id="edge4" class="edge">
<title>DatabaseService&#45;&gt;AwsModule</title>
<path fill="none" stroke="black" d="M233,-84.91C233,-84.91 233,-103.79 233,-103.79"/>
<polygon fill="black" stroke="black" points="229.5,-103.79 233,-113.79 236.5,-103.79 229.5,-103.79"/>
</g>
</g>
</svg>
