<?xml version="1.0" encoding="UTF-8" standalone="no"?>
<!DOCTYPE svg PUBLIC "-//W3C//DTD SVG 1.1//EN"
 "http://www.w3.org/Graphics/SVG/1.1/DTD/svg11.dtd">
<!-- Generated by graphviz version 5.0.0 (20220707.1540)
 -->
<!-- Title: dependencies Pages: 1 -->
<svg width="348pt" height="174pt"
 viewBox="0.00 0.00 348.00 173.80" xmlns="http://www.w3.org/2000/svg" xmlns:xlink="http://www.w3.org/1999/xlink">
<g id="graph0" class="graph" transform="scale(1 1) rotate(0) translate(4 169.8)">
<title>dependencies</title>
<polygon fill="white" stroke="transparent" points="-4,4 -4,-169.8 344,-169.8 344,4 -4,4"/>
<text text-anchor="middle" x="170" y="-8.2" font-family="sans-serif" font-size="14.00">dependencies</text>
<g id="clust1" class="cluster">
<title>cluster_MigrationModule</title>
<polygon fill="none" stroke="black" stroke-dasharray="1,5" points="8,-32.8 8,-157.8 332,-157.8 332,-32.8 8,-32.8"/>
</g>
<g id="clust6" class="cluster">
<title>cluster_MigrationModule_providers</title>
<polygon fill="none" stroke="black" points="150,-40.8 150,-92.8 324,-92.8 324,-40.8 150,-40.8"/>
</g>
<g id="clust3" class="cluster">
<title>cluster_MigrationModule_imports</title>
<polygon fill="none" stroke="black" points="16,-40.8 16,-92.8 142,-92.8 142,-40.8 16,-40.8"/>
</g>
<!-- DatabaseModule -->
<g id="node1" class="node">
<title>DatabaseModule</title>
<polygon fill="#8dd3c7" stroke="black" points="134.36,-84.8 131.36,-88.8 110.36,-88.8 107.36,-84.8 23.64,-84.8 23.64,-48.8 134.36,-48.8 134.36,-84.8"/>
<text text-anchor="middle" x="79" y="-62.6" font-family="Times,serif" font-size="14.00">DatabaseModule</text>
</g>
<!-- MigrationModule -->
<g id="node2" class="node">
<title>MigrationModule</title>
<polygon fill="#8dd3c7" stroke="black" points="215.55,-149.8 212.55,-153.8 191.55,-153.8 188.55,-149.8 100.45,-149.8 100.45,-113.8 215.55,-113.8 215.55,-149.8"/>
<text text-anchor="middle" x="158" y="-127.6" font-family="Times,serif" font-size="14.00">MigrationModule</text>
</g>
<!-- DatabaseModule&#45;&gt;MigrationModule -->
<g id="edge1" class="edge">
<title>DatabaseModule&#45;&gt;MigrationModule</title>
<path fill="none" stroke="black" d="M117.33,-84.91C117.33,-84.91 117.33,-103.79 117.33,-103.79"/>
<polygon fill="black" stroke="black" points="113.83,-103.79 117.33,-113.79 120.83,-103.79 113.83,-103.79"/>
</g>
<!-- MigrationService -->
<g id="node3" class="node">
<title>MigrationService</title>
<ellipse fill="#fdb462" stroke="black" cx="237" cy="-66.8" rx="78.73" ry="18"/>
<text text-anchor="middle" x="237" y="-62.6" font-family="Times,serif" font-size="14.00">MigrationService</text>
</g>
<!-- MigrationService&#45;&gt;MigrationModule -->
<g id="edge2" class="edge">
<title>MigrationService&#45;&gt;MigrationModule</title>
<path fill="none" stroke="black" d="M187.08,-80.9C187.08,-80.9 187.08,-103.52 187.08,-103.52"/>
<polygon fill="black" stroke="black" points="183.58,-103.52 187.08,-113.52 190.58,-103.52 183.58,-103.52"/>
</g>
</g>
</svg>
