<?xml version="1.0" encoding="UTF-8" standalone="no"?>
<!DOCTYPE svg PUBLIC "-//W3C//DTD SVG 1.1//EN"
 "http://www.w3.org/Graphics/SVG/1.1/DTD/svg11.dtd">
<!-- Generated by graphviz version 5.0.0 (20220707.1540)
 -->
<!-- Title: dependencies Pages: 1 -->
<svg width="515pt" height="174pt"
 viewBox="0.00 0.00 515.00 173.80" xmlns="http://www.w3.org/2000/svg" xmlns:xlink="http://www.w3.org/1999/xlink">
<g id="graph0" class="graph" transform="scale(1 1) rotate(0) translate(4 169.8)">
<title>dependencies</title>
<polygon fill="white" stroke="transparent" points="-4,4 -4,-169.8 511,-169.8 511,4 -4,4"/>
<text text-anchor="middle" x="253.5" y="-8.2" font-family="sans-serif" font-size="14.00">dependencies</text>
<g id="clust1" class="cluster">
<title>cluster_AppModule</title>
<polygon fill="none" stroke="black" stroke-dasharray="1,5" points="8,-32.8 8,-157.8 499,-157.8 499,-32.8 8,-32.8"/>
</g>
<g id="clust3" class="cluster">
<title>cluster_AppModule_imports</title>
<polygon fill="none" stroke="black" points="16,-40.8 16,-92.8 491,-92.8 491,-40.8 16,-40.8"/>
</g>
<!-- AwsModule -->
<g id="node1" class="node">
<title>AwsModule</title>
<polygon fill="#8dd3c7" stroke="black" points="482.72,-84.8 479.72,-88.8 458.72,-88.8 455.72,-84.8 397.28,-84.8 397.28,-48.8 482.72,-48.8 482.72,-84.8"/>
<text text-anchor="middle" x="440" y="-62.6" font-family="Times,serif" font-size="14.00">AwsModule</text>
</g>
<!-- AppModule -->
<g id="node5" class="node">
<title>AppModule</title>
<polygon fill="#8dd3c7" stroke="black" points="314.66,-149.8 311.66,-153.8 290.66,-153.8 287.66,-149.8 231.34,-149.8 231.34,-113.8 314.66,-113.8 314.66,-149.8"/>
<text text-anchor="middle" x="273" y="-127.6" font-family="Times,serif" font-size="14.00">AppModule</text>
</g>
<!-- AwsModule&#45;&gt;AppModule -->
<g id="edge1" class="edge">
<title>AwsModule&#45;&gt;AppModule</title>
<path fill="none" stroke="black" d="M440,-84.91C440,-104.14 440,-131.8 440,-131.8 440,-131.8 324.71,-131.8 324.71,-131.8"/>
<polygon fill="black" stroke="black" points="324.71,-128.3 314.71,-131.8 324.71,-135.3 324.71,-128.3"/>
</g>
<!-- AzureModule -->
<g id="node2" class="node">
<title>AzureModule</title>
<polygon fill="#8dd3c7" stroke="black" points="379.75,-84.8 376.75,-88.8 355.75,-88.8 352.75,-84.8 286.25,-84.8 286.25,-48.8 379.75,-48.8 379.75,-84.8"/>
<text text-anchor="middle" x="333" y="-62.6" font-family="Times,serif" font-size="14.00">AzureModule</text>
</g>
<!-- AzureModule&#45;&gt;AppModule -->
<g id="edge2" class="edge">
<title>AzureModule&#45;&gt;AppModule</title>
<path fill="none" stroke="black" d="M300.48,-84.91C300.48,-84.91 300.48,-103.79 300.48,-103.79"/>
<polygon fill="black" stroke="black" points="296.98,-103.79 300.48,-113.79 303.98,-103.79 296.98,-103.79"/>
</g>
<!-- DatabaseModule -->
<g id="node3" class="node">
<title>DatabaseModule</title>
<polygon fill="#8dd3c7" stroke="black" points="268.36,-84.8 265.36,-88.8 244.36,-88.8 241.36,-84.8 157.64,-84.8 157.64,-48.8 268.36,-48.8 268.36,-84.8"/>
<text text-anchor="middle" x="213" y="-62.6" font-family="Times,serif" font-size="14.00">DatabaseModule</text>
</g>
<!-- DatabaseModule&#45;&gt;AppModule -->
<g id="edge3" class="edge">
<title>DatabaseModule&#45;&gt;AppModule</title>
<path fill="none" stroke="black" d="M249.8,-84.91C249.8,-84.91 249.8,-103.79 249.8,-103.79"/>
<polygon fill="black" stroke="black" points="246.3,-103.79 249.8,-113.79 253.3,-103.79 246.3,-103.79"/>
</g>
<!-- MigrationModule -->
<g id="node4" class="node">
<title>MigrationModule</title>
<polygon fill="#8dd3c7" stroke="black" points="139.55,-84.8 136.55,-88.8 115.55,-88.8 112.55,-84.8 24.45,-84.8 24.45,-48.8 139.55,-48.8 139.55,-84.8"/>
<text text-anchor="middle" x="82" y="-62.6" font-family="Times,serif" font-size="14.00">MigrationModule</text>
</g>
<!-- MigrationModule&#45;&gt;AppModule -->
<g id="edge4" class="edge">
<title>MigrationModule&#45;&gt;AppModule</title>
<path fill="none" stroke="black" d="M82,-84.91C82,-104.14 82,-131.8 82,-131.8 82,-131.8 221.08,-131.8 221.08,-131.8"/>
<polygon fill="black" stroke="black" points="221.08,-135.3 231.08,-131.8 221.08,-128.3 221.08,-135.3"/>
</g>
</g>
</svg>
